<?xml version="1.0" standalone="no"?>
<!DOCTYPE svg PUBLIC "-//W3C//DTD SVG 20010904//EN"
 "http://www.w3.org/TR/2001/REC-SVG-20010904/DTD/svg10.dtd">
<svg version="1.0" xmlns="http://www.w3.org/2000/svg"
 width="512.000000pt" height="512.000000pt" viewBox="0 0 512.000000 512.000000"
 preserveAspectRatio="xMidYMid meet">
<metadata>
Created by potrace 1.11, written by Peter Selinger 2001-2013
</metadata>
<g transform="translate(0.000000,512.000000) scale(0.100000,-0.100000)"
fill="#000000" stroke="none">
<path d="M0 2560 l0 -2560 2560 0 2560 0 0 2560 0 2560 -2560 0 -2560 0 0
-2560z m575 4 l1 -332 -26 5 c-37 6 -70 30 -80 59 -6 14 -10 140 -10 281 l0
255 35 35 c23 23 42 33 57 31 l23 -3 0 -331z m211 302 l34 -34 0 -261 c0 -226
-2 -265 -16 -287 -25 -38 -52 -48 -131 -49 l-73 -1 0 53 0 53 33 -2 c79 -2 72
-25 71 229 l0 228 -52 3 -52 3 0 50 0 49 76 0 c73 0 77 -1 110 -34z m214 -300
l0 -335 -22 4 c-35 7 -62 24 -78 48 -12 18 -15 74 -16 277 -1 147 3 263 8 275
15 30 60 65 86 65 l22 0 0 -334z m183 322 c30 -16 46 -33 55 -60 6 -18 8 -392
3 -505 -1 -13 -14 -37 -30 -55 -27 -30 -31 -32 -107 -32 l-79 -1 -1 51 -2 51
37 0 c76 1 69 -22 68 231 l-2 227 -52 3 -52 3 1 50 0 49 70 0 c38 0 79 -5 91
-12z m238 -10 c1 -29 1 -631 0 -640 -1 -10 -40 -1 -67 17 -44 29 -46 45 -47
316 0 277 2 286 55 316 36 20 58 16 59 -9z m216 -11 l28 -27 2 -266 2 -265
-33 -36 c-32 -35 -35 -36 -109 -38 -43 -1 -78 2 -78 7 -4 25 -5 75 -1 85 2 7
22 11 53 10 l49 -2 0 232 0 232 -52 3 -52 3 -2 40 c-1 22 1 44 4 49 2 4 40 6
83 4 70 -3 82 -6 106 -31z m317 -24 c-9 -98 -11 -103 -45 -103 -34 0 -36 3
-43 93 l-5 67 49 0 49 0 -5 -57z m119 10 c-2 -27 -6 -59 -8 -73 -2 -14 -4 -28
-4 -32 -2 -14 -68 -9 -68 5 0 6 -3 42 -7 80 l-7 67 49 0 49 0 -4 -47z m178
-90 c15 -73 26 -138 25 -145 -21 -119 -41 -215 -45 -220 -4 -4 -33 99 -65 230
-32 130 -60 245 -63 255 -4 16 2 18 58 15 l63 -3 27 -132z m187 -35 c-22 -95
-41 -182 -43 -193 -57 -272 -71 -295 -174 -299 -34 -2 -62 1 -62 6 -4 25 -5
75 -1 85 2 7 18 12 35 11 53 -1 54 0 62 48 7 52 9 62 30 164 8 41 17 86 20
100 2 14 14 76 26 138 l22 112 62 0 62 0 -39 -172z m289 122 c0 -31 -4 -50
-11 -51 -6 0 -30 0 -53 1 l-43 2 0 -284 0 -284 -57 1 -58 0 0 333 -1 332 111
0 110 0 2 -50z m138 -285 l0 -330 -58 0 -57 -1 -1 113 c0 62 0 169 0 238 0 69
0 168 0 220 l1 96 58 -3 57 -3 0 -330z m177 318 c3 -15 2 -605 -1 -638 -1 -6
-26 -10 -56 -10 -31 0 -55 4 -55 10 -1 17 -1 619 -1 638 1 14 10 17 55 17 43
0 54 -3 58 -17z m245 5 c-3 -7 -31 -77 -62 -156 l-57 -143 71 -170 c40 -93 70
-173 67 -178 -5 -8 -103 -8 -109 0 -2 2 -32 69 -67 149 -49 108 -64 154 -63
184 2 36 23 100 78 236 12 30 25 63 28 73 5 13 18 17 63 17 41 0 55 -3 51 -12z
m378 -125 l59 -136 23 54 c13 30 34 77 47 104 l24 50 0 -140 0 -140 -40 -98
c-28 -67 -45 -97 -55 -95 -8 2 -41 68 -75 153 -33 83 -80 199 -104 259 -24 60
-44 112 -44 117 0 5 24 9 53 9 l54 0 58 -137z m290 -198 l0 -330 -57 0 -58 -1
0 334 0 333 58 -3 57 -3 0 -330z m285 285 l0 -50 -53 0 -52 0 0 -282 0 -283
-57 -1 -58 -1 0 334 0 333 110 0 110 0 0 -50z m138 -282 l-3 -333 -55 0 -55 0
-1 333 -1 332 59 0 58 0 -2 -332z m156 315 c-2 -10 -5 -45 -8 -78 -3 -33 -5
-61 -5 -62 -1 -2 -17 -3 -36 -3 -30 0 -35 4 -35 23 -1 12 -3 48 -7 80 l-5 57
50 0 c42 0 50 -3 46 -17z m112 -60 c-2 -43 -5 -79 -5 -80 -1 -2 -17 -3 -36 -3
-26 0 -35 4 -36 18 0 9 -3 45 -5 80 l-6 62 47 0 47 0 -6 -77z m-1094 -128 l56
-140 -2 -160 -1 -160 -57 0 -58 -1 0 305 c0 167 2 302 4 300 1 -2 28 -67 58
-144z m-101 -135 c8 -66 4 -70 -71 -68 l-70 2 0 38 0 38 70 0 c39 0 71 -4 71
-10z"/>
</g>
</svg>
