<?xml version="1.0" standalone="no"?>
<!DOCTYPE svg PUBLIC "-//W3C//DTD SVG 20010904//EN"
 "http://www.w3.org/TR/2001/REC-SVG-20010904/DTD/svg10.dtd">
<svg version="1.0" xmlns="http://www.w3.org/2000/svg"
 width="4848.000000pt" height="4848.000000pt" viewBox="0 0 4848.000000 4848.000000"
 preserveAspectRatio="xMidYMid meet">
<metadata>
Created by potrace 1.11, written by Peter Selinger 2001-2013
</metadata>
<g transform="translate(0.000000,4848.000000) scale(0.100000,-0.100000)"
fill="#000000" stroke="none">
<path d="M934 28055 c-219 -53 -415 -171 -599 -360 -101 -103 -113 -117 -152
-177 -15 -24 -31 -44 -35 -46 -5 -2 -8 -10 -8 -18 0 -8 -5 -14 -11 -14 -5 0
-8 -4 -4 -9 3 -5 0 -15 -7 -23 -7 -7 -19 -26 -27 -43 -7 -16 -17 -38 -22 -48
-13 -25 -40 -106 -46 -136 -2 -14 -8 -44 -13 -66 -14 -58 -12 -5706 1 -5770
10 -47 34 -132 46 -165 4 -8 5 -18 5 -22 -1 -5 2 -8 8 -8 5 0 10 -6 10 -14 0
-19 61 -126 118 -206 85 -119 302 -321 402 -372 14 -7 27 -15 30 -18 23 -25
231 -113 295 -125 17 -3 41 -8 55 -11 14 -3 98 -8 188 -11 l162 -5 0 29 c1 38
1 7623 1 7646 -1 17 -12 18 -154 16 -118 -1 -174 -7 -243 -24z"/>
<path d="M1604 27980 c1 -55 -3 -100 -8 -100 -5 0 -5 -5 1 -12 10 -16 10 -288
-1 -306 -4 -6 -4 -12 1 -12 7 0 9 -165 3 -180 -1 -3 -1 -9 0 -15 7 -28 4 -185
-3 -185 -4 0 -5 -6 0 -12 4 -7 8 -60 9 -118 0 -58 2 -110 2 -115 1 -7 202 -10
595 -10 325 0 599 -1 607 -3 12 -2 15 -23 13 -125 -2 -67 -3 -131 -3 -142 -1
-68 -1 -92 0 -105 0 -8 0 -26 -1 -40 0 -14 -1 -32 -1 -40 1 -8 1 -186 1 -395
0 -209 0 -387 0 -395 1 -8 1 -28 0 -45 0 -16 0 -37 1 -45 0 -8 0 -26 -1 -40 0
-14 -1 -32 -1 -40 0 -8 0 -762 0 -1675 0 -913 1 -1667 1 -1675 0 -8 1 -28 0
-45 0 -16 0 -37 1 -45 0 -8 0 -26 -1 -40 0 -14 -1 -32 0 -40 2 -78 -1 -404 -3
-409 -2 -3 -276 -6 -609 -5 l-604 0 1 -78 c1 -43 -3 -78 -7 -78 -5 0 -5 -6 -1
-12 11 -17 11 -238 1 -238 -5 0 -5 -5 -1 -12 11 -18 11 -291 1 -305 -5 -7 -6
-13 -1 -13 10 0 11 -166 2 -176 -4 -3 -3 -16 1 -28 8 -24 7 -58 -3 -75 -4 -6
-3 -11 1 -11 5 0 8 -34 7 -75 l-1 -75 771 3 c424 1 785 6 803 9 17 4 51 12 75
19 24 7 46 13 51 15 4 1 9 3 12 4 3 1 8 3 13 4 4 1 33 14 66 29 32 15 60 27
62 27 10 0 171 104 222 144 99 75 212 193 287 296 22 30 43 57 47 58 5 2 8 12
8 23 0 10 4 19 9 19 13 0 88 171 106 241 9 34 19 85 22 113 7 67 7 5614 0
5686 -3 31 -11 68 -16 83 -6 15 -9 27 -6 27 9 0 -48 139 -87 210 -71 131 -218
306 -332 395 -22 17 -44 35 -50 40 -24 22 -166 116 -166 110 0 -4 -12 2 -27
13 -48 32 -177 83 -278 108 -16 5 -382 10 -811 11 l-782 4 2 -101z"/>
<path d="M5916 28073 c-2 -3 -17 -6 -33 -7 -118 -11 -335 -110 -482 -219 -58
-43 -62 -47 -153 -134 -76 -71 -208 -239 -208 -263 0 -4 -4 -10 -8 -12 -10 -4
-68 -123 -88 -182 -19 -51 -34 -118 -41 -176 -7 -61 -6 -5611 1 -5680 11 -106
29 -173 75 -270 29 -63 102 -183 113 -188 4 -2 8 -10 8 -17 0 -7 3 -15 8 -17
4 -1 23 -23 43 -48 117 -144 309 -294 473 -370 78 -36 116 -52 126 -54 5 -1
79 -20 135 -35 17 -4 101 -9 188 -10 l157 -2 0 3846 0 3846 -155 -2 c-85 -1
-156 -4 -159 -6z"/>
<path d="M6501 28023 c1 -32 0 -62 -1 -68 -1 -5 -2 -13 -1 -17 5 -20 3 -109
-2 -115 -4 -3 -2 -13 3 -22 5 -10 5 -23 0 -31 -5 -8 -6 -18 -4 -22 5 -7 8
-252 4 -273 -1 -6 -2 -13 -1 -17 5 -19 3 -106 -2 -115 -3 -5 -2 -15 3 -23 5
-8 5 -21 0 -31 -5 -9 -7 -19 -4 -22 5 -4 8 -250 4 -272 -1 -6 -1 -14 0 -20 1
-5 3 -21 3 -35 l2 -25 595 -1 c327 -1 600 -2 606 -3 8 -1 11 -734 12 -2653 0
-1459 -1 -2662 -3 -2673 -4 -20 -12 -20 -602 -19 -329 0 -604 -1 -610 -4 -7
-2 -10 -8 -7 -13 9 -14 10 -209 1 -209 -4 0 -4 -7 0 -15 5 -8 6 -42 3 -75 -3
-33 -2 -67 3 -76 5 -9 4 -20 -2 -27 -6 -8 -6 -18 -1 -27 4 -7 4 -23 0 -36 -5
-12 -6 -25 -3 -28 7 -7 7 -101 0 -113 -3 -5 -2 -15 3 -23 5 -8 5 -21 0 -31 -5
-9 -7 -19 -4 -22 5 -4 8 -250 4 -272 -1 -6 -2 -13 -1 -17 5 -19 3 -106 -2
-115 -3 -5 -2 -15 3 -23 5 -8 4 -22 -1 -32 -10 -18 17 -19 765 -18 l775 1 93
25 c257 70 511 246 708 490 25 31 86 126 111 174 13 25 29 48 34 52 6 4 7 8 3
8 -4 0 6 32 23 72 16 39 27 73 25 76 -3 2 0 16 6 31 14 36 27 249 18 296 -1 6
-2 14 -1 19 3 12 2 607 0 621 -1 6 -1 14 0 19 1 5 2 201 1 435 0 234 -1 435
-1 446 0 11 0 121 0 245 0 124 0 232 0 240 0 8 0 116 0 240 0 124 0 232 0 240
0 8 0 116 0 240 0 124 0 232 0 240 0 8 0 116 0 240 0 124 0 230 0 235 0 6 1
91 1 190 1 99 0 185 -1 190 -1 6 -1 14 0 19 3 12 2 607 0 621 -1 6 0 14 1 20
4 21 0 932 -5 965 -16 122 -63 248 -130 355 -14 22 -28 47 -32 55 -3 8 -9 17
-13 20 -3 3 -13 14 -21 26 -25 36 -92 115 -139 162 -63 64 -221 192 -237 192
-7 0 -13 4 -13 8 0 8 -35 29 -140 82 -51 26 -169 69 -237 87 -15 4 -380 8
-811 10 l-783 4 2 -58z"/>
<path d="M10818 28075 c-2 -2 -19 -5 -38 -8 -19 -3 -53 -11 -75 -18 -22 -7
-44 -13 -50 -14 -50 -9 -284 -127 -293 -147 -2 -5 -10 -8 -17 -8 -7 0 -15 -4
-17 -8 -1 -4 -21 -21 -43 -37 -69 -52 -179 -155 -225 -212 -69 -85 -91 -116
-122 -168 -34 -57 -89 -169 -88 -180 0 -3 -6 -21 -14 -40 -8 -19 -13 -35 -10
-35 3 0 0 -9 -5 -19 -6 -10 -14 -50 -17 -87 -9 -91 -9 -5631 -1 -5709 7 -65
18 -114 36 -157 6 -16 9 -28 6 -28 -4 0 68 -142 104 -204 25 -44 131 -177 171
-216 30 -29 116 -107 152 -136 44 -37 142 -99 204 -130 32 -16 61 -32 62 -36
2 -5 10 -8 18 -8 8 0 22 -4 32 -9 23 -13 53 -23 77 -28 11 -2 27 -6 35 -10 16
-6 30 -10 70 -19 14 -3 100 -8 192 -11 l167 -5 0 3847 0 3846 -155 -2 c-84 -1
-155 -3 -156 -4z"/>
<path d="M11405 28069 c-4 -6 -7 -216 -6 -467 2 -515 2 -479 0 -588 -1 -45 1
-86 4 -91 3 -5 258 -8 602 -8 328 0 600 -2 604 -5 9 -7 9 -5333 0 -5340 -4 -3
-278 -5 -608 -4 l-601 0 -1 -35 c0 -20 0 -63 0 -96 2 -82 2 -52 1 -535 -1
-239 -1 -452 -1 -473 l1 -38 783 4 c760 3 819 5 887 34 8 3 23 8 34 10 30 5
208 93 243 119 17 13 36 24 40 24 5 0 18 8 29 18 10 9 35 29 54 43 110 83 239
218 304 317 16 26 33 49 37 52 9 7 47 84 45 91 0 4 6 15 15 25 13 15 41 82 44
104 0 3 3 10 6 15 4 6 10 24 13 40 3 17 9 41 12 55 3 14 7 41 8 61 2 20 6 42
10 48 4 6 3 11 -1 11 -5 0 -7 21 -5 48 4 65 4 62 -1 105 -3 20 -2 39 2 42 7 3
7 37 1 55 -4 14 -1 352 3 357 3 3 1 16 -4 30 -5 14 -6 31 -2 37 8 10 8 25 3
51 -4 24 -1 357 3 362 3 3 1 16 -4 30 -5 14 -6 31 -2 37 8 10 9 25 3 51 -5 24
-1 215 4 224 4 5 3 12 -2 15 -5 3 -7 24 -5 48 5 57 5 57 0 101 -3 20 -2 39 2
42 7 3 7 37 1 55 -4 14 -1 352 3 357 3 3 1 16 -4 30 -5 14 -6 31 -2 37 8 10 8
25 3 51 -4 24 -1 357 3 362 3 3 1 16 -4 30 -5 14 -6 31 -2 37 8 10 9 29 3 49
-5 18 -3 53 3 64 4 6 4 14 -1 17 -5 3 -7 24 -5 48 5 57 5 57 0 101 -3 20 -2
39 2 42 7 3 7 37 1 55 -4 14 -1 352 3 357 3 3 1 16 -4 30 -5 14 -6 31 -2 37 8
10 8 25 3 51 -4 24 -1 357 3 362 3 3 1 16 -4 30 -5 14 -6 31 -2 37 7 10 9 32
3 46 -6 16 -5 69 1 92 4 14 5 29 1 32 -9 10 -9 60 0 73 5 6 5 14 -1 17 -6 4
-6 18 -1 35 4 16 6 32 2 35 -9 10 -9 60 0 73 5 6 5 14 -1 17 -6 4 -6 18 -1 35
4 16 6 32 2 35 -9 10 -9 60 0 73 5 6 5 14 -1 17 -6 4 -6 18 -1 35 4 16 6 32 2
35 -9 10 -9 60 0 73 5 6 5 14 -1 17 -6 4 -6 18 -1 35 4 16 6 32 2 35 -9 10 -9
60 0 73 5 6 5 14 -1 17 -6 4 -6 18 -1 35 4 16 6 32 2 35 -9 10 -9 60 0 73 5 6
5 14 -1 17 -6 4 -6 18 -1 35 4 16 6 32 2 35 -9 10 -9 60 0 73 5 6 5 14 -1 17
-6 4 -6 18 -1 35 4 16 6 32 3 35 -10 10 -11 66 -2 72 5 3 7 10 4 15 -6 8 -10
153 -5 174 1 6 1 12 0 15 -6 16 -5 69 1 93 4 15 4 27 0 27 -4 0 -7 15 -6 33 1
51 -32 179 -67 259 -134 305 -472 614 -789 722 -131 45 -135 45 -930 46 -550
0 -759 -3 -764 -11z"/>
<path d="M16215 27993 c3 -49 7 -104 10 -123 2 -19 6 -75 10 -125 4 -49 8
-112 11 -140 2 -27 6 -84 9 -125 3 -41 7 -95 10 -120 5 -48 12 -140 20 -255 2
-38 7 -92 10 -120 2 -27 7 -93 11 -145 3 -52 8 -111 10 -130 2 -19 6 -69 9
-110 3 -41 7 -95 10 -120 2 -25 7 -85 10 -135 4 -49 8 -91 9 -92 2 -3 653 -5
782 -3 30 0 31 2 33 48 1 26 4 65 6 87 6 51 17 213 18 243 1 12 4 22 8 22 4 0
3 16 -1 35 -4 19 -5 35 -1 35 3 0 7 15 7 33 2 46 13 182 20 250 3 32 7 90 9
130 2 39 5 72 5 72 2 0 4 23 14 165 3 47 8 110 11 140 8 93 16 182 20 245 2
33 7 90 10 128 3 37 7 96 10 132 l5 65 -550 0 -551 0 6 -87z"/>
<path d="M17586 28018 c2 -35 7 -88 10 -118 3 -30 7 -77 9 -103 2 -27 6 -78
10 -115 7 -71 13 -141 20 -232 2 -30 6 -80 9 -110 15 -155 19 -200 22 -250 6
-85 13 -175 14 -175 1 0 3 -25 5 -55 3 -30 7 -84 10 -120 3 -36 8 -92 11 -125
3 -33 7 -82 10 -110 2 -27 6 -82 9 -122 5 -77 11 -123 19 -130 2 -2 181 -4
398 -4 352 -1 393 1 392 15 -1 9 1 16 5 16 3 0 7 19 7 43 2 67 14 199 20 209
3 4 0 8 -6 8 -6 0 -8 5 -3 13 4 6 8 21 9 32 1 11 4 61 8 110 3 50 9 115 12
145 3 30 7 82 9 115 2 33 6 92 9 130 4 39 9 97 12 130 2 33 6 85 9 115 3 30 7
87 9 125 3 39 8 99 11 135 4 36 8 90 10 120 2 30 6 87 9 125 3 39 8 102 11
140 2 39 5 70 5 70 1 0 3 8 5 18 3 16 -29 17 -550 17 l-554 0 5 -62z"/>
<path d="M18959 28073 c-1 -5 0 -12 1 -18 1 -5 9 -37 17 -70 8 -33 16 -67 18
-75 2 -8 20 -80 39 -160 20 -79 38 -154 41 -165 2 -11 11 -47 20 -80 8 -33 36
-143 61 -245 25 -102 47 -192 49 -200 23 -95 32 -140 27 -140 -4 0 -2 -4 4 -8
9 -6 15 -28 40 -142 10 -50 11 -55 17 -70 5 -15 18 -63 23 -89 2 -8 10 -45 19
-81 9 -36 17 -73 19 -81 2 -7 6 -21 9 -29 6 -16 65 -260 72 -295 2 -11 4 -20
5 -20 1 0 3 -7 5 -15 2 -8 6 -26 8 -40 6 -27 32 -132 47 -192 6 -21 15 -56 20
-78 6 -22 15 -57 20 -77 6 -21 12 -49 14 -63 3 -14 5 -25 6 -25 1 0 4 -10 13
-50 3 -11 13 -51 22 -90 9 -38 18 -77 20 -85 2 -8 4 -16 5 -17 3 -3 3 -3 15
-58 11 -51 6 -34 53 -220 23 -88 43 -172 46 -187 2 -15 7 -31 10 -36 3 -5 8
-22 11 -38 3 -16 14 -65 25 -109 12 -44 23 -90 26 -102 2 -12 27 -113 55 -225
56 -226 97 -393 104 -423 3 -11 12 -47 20 -80 9 -33 18 -71 20 -85 3 -19 79
-319 94 -372 1 -4 3 -13 5 -20 8 -30 68 -275 72 -298 3 -14 7 -33 10 -42 3 -9
7 -25 9 -35 9 -36 46 -188 49 -203 3 -8 9 -35 15 -60 7 -25 14 -53 16 -62 3
-10 7 -26 9 -36 2 -9 9 -35 15 -57 6 -22 12 -51 15 -65 2 -14 5 -25 6 -25 1 0
4 -11 7 -25 8 -41 11 -55 14 -55 1 0 3 -9 4 -20 2 -11 13 -58 25 -105 28 -107
25 -97 53 -214 23 -99 33 -109 44 -43 7 46 10 65 23 127 6 30 13 66 16 80 4
21 15 76 39 191 2 9 6 32 9 50 3 19 14 78 26 133 11 54 22 108 24 120 6 34 18
100 22 119 2 10 5 26 8 35 3 9 7 28 10 42 7 42 28 154 30 165 2 6 6 28 11 50
4 22 9 49 12 60 4 22 21 107 28 145 3 14 7 36 10 50 3 14 7 36 10 50 3 14 7
36 10 50 6 27 13 61 20 100 3 14 14 72 25 130 12 58 23 114 25 125 6 34 15 79
22 110 4 17 8 39 9 50 3 25 13 75 20 96 2 9 7 33 9 54 3 20 7 40 9 44 3 3 7
25 10 47 4 22 9 51 12 64 3 14 7 36 10 50 2 14 7 36 11 50 3 14 7 32 8 40 9
61 17 106 21 111 2 3 6 21 8 40 3 19 10 57 16 84 6 28 12 61 15 75 2 14 7 36
10 50 9 34 7 85 -6 117 -5 14 -8 28 -5 30 2 2 -3 25 -10 50 -8 26 -12 48 -9
51 2 3 0 12 -4 21 -5 9 -12 37 -15 63 -4 26 -9 53 -11 60 -2 7 -6 24 -9 38 -2
14 -11 57 -19 95 -9 39 -19 88 -23 110 -4 22 -8 42 -9 45 -2 8 -17 84 -22 110
-2 13 -11 56 -20 95 -8 38 -16 79 -18 90 -1 11 -4 21 -5 23 -1 1 -3 10 -4 20
-1 9 -5 31 -9 47 -4 17 -9 41 -11 55 -3 14 -10 48 -16 75 -6 28 -12 61 -14 75
-2 14 -9 48 -16 75 -6 28 -13 61 -15 75 -2 14 -9 48 -15 75 -12 52 -19 84 -26
123 -2 12 -6 32 -8 45 -2 12 -7 36 -11 52 -3 17 -8 40 -10 52 -2 11 -6 30 -9
41 -4 11 -9 35 -11 53 -3 19 -7 45 -11 59 -10 45 -25 115 -29 140 -2 14 -6 34
-9 45 -3 11 -14 67 -26 125 -26 125 -31 152 -34 165 -2 6 -6 28 -10 50 -4 22
-12 60 -17 85 -5 25 -12 56 -14 70 -4 23 -9 44 -20 95 -7 32 -46 228 -51 255
-3 14 -12 59 -21 100 -28 137 -32 155 -33 163 0 4 -319 7 -710 7 -390 0 -711
-3 -711 -7z"/>
<path d="M21892 28074 c3 -3 2 -22 -3 -42 -10 -39 -18 -88 -24 -131 -2 -14 -4
-26 -5 -26 -3 0 -10 -31 -24 -115 -3 -14 -5 -25 -6 -25 -1 0 -3 -9 -4 -20 -5
-31 -55 -292 -71 -367 -8 -36 -17 -83 -21 -103 -6 -42 -11 -69 -19 -105 -19
-90 -35 -173 -41 -210 -3 -19 -7 -42 -9 -50 -2 -8 -7 -28 -10 -45 -2 -16 -7
-41 -10 -55 -12 -54 -26 -127 -31 -160 -3 -19 -9 -51 -14 -70 -5 -19 -12 -51
-14 -70 -3 -19 -10 -52 -15 -72 -5 -20 -6 -39 -3 -42 2 -3 -1 -12 -8 -21 -7
-8 -10 -15 -7 -15 3 0 1 -18 -4 -40 -11 -48 -22 -110 -22 -127 0 -7 -4 -13 -9
-13 -5 0 -7 -4 -4 -9 3 -5 -6 -65 -20 -132 -14 -68 -27 -135 -29 -149 -2 -14
-7 -38 -10 -55 -4 -16 -8 -41 -10 -55 -2 -14 -4 -25 -5 -25 -1 0 -3 -11 -6
-25 -2 -14 -12 -61 -20 -105 -9 -44 -18 -89 -20 -100 -2 -11 -5 -31 -9 -45 -3
-14 -8 -40 -11 -59 -3 -18 -8 -43 -10 -55 -3 -11 -7 -32 -10 -46 -9 -45 -13
-65 -18 -86 -2 -12 -7 -37 -10 -55 -3 -19 -8 -45 -11 -59 -3 -14 -8 -38 -10
-55 -3 -16 -8 -37 -10 -45 -2 -8 -6 -31 -9 -50 -3 -19 -12 -68 -20 -107 -9
-40 -18 -87 -21 -105 -3 -18 -8 -40 -10 -48 -2 -8 -7 -31 -10 -50 -3 -19 -8
-42 -10 -50 -2 -8 -6 -33 -10 -55 -3 -22 -7 -47 -10 -55 -2 -8 -6 -26 -9 -40
-3 -14 -7 -34 -9 -45 -3 -11 -8 -40 -12 -65 -7 -44 -10 -58 -20 -102 -3 -13
-8 -38 -11 -57 -3 -18 -8 -43 -10 -55 -3 -11 -7 -32 -10 -46 -2 -14 -7 -36 -9
-50 -3 -14 -8 -38 -11 -55 -2 -16 -7 -38 -10 -48 -3 -10 -8 -32 -10 -50 -3
-18 -7 -41 -8 -52 -2 -11 -4 -20 -5 -20 -1 0 -4 -13 -7 -30 -5 -38 -12 -70
-14 -70 -1 0 -3 -11 -5 -25 -1 -14 -9 -59 -18 -100 -15 -72 -21 -100 -32 -165
-8 -43 -15 -77 -29 -142 -8 -36 -20 -108 -21 -123 0 -8 -3 -19 -6 -25 -4 -5
-10 -30 -13 -55 -9 -59 -25 -145 -37 -195 -5 -22 -11 -53 -14 -70 -2 -16 -9
-52 -15 -80 -6 -27 -12 -63 -15 -80 -2 -16 -7 -41 -10 -55 -11 -54 -16 -76
-20 -100 -2 -14 -8 -45 -14 -70 -5 -25 -13 -61 -16 -80 -3 -19 -12 -66 -20
-105 -15 -70 -21 -104 -31 -160 -3 -16 -15 -73 -25 -125 -11 -52 -22 -113 -26
-135 -3 -22 -9 -48 -14 -57 -5 -9 -8 -21 -7 -25 3 -15 -14 -120 -22 -133 -7
-12 -100 -14 -512 -14 l-503 -1 -3 -588 -2 -588 597 4 c329 2 614 7 633 11 61
13 207 69 250 96 8 5 35 21 60 36 90 54 228 175 325 285 44 50 120 151 133
176 7 12 18 27 24 35 27 29 110 190 151 295 35 86 73 229 102 378 3 11 9 38
14 60 5 22 12 52 15 68 2 15 7 35 10 45 3 9 7 28 10 42 2 14 12 57 21 95 9 39
18 77 20 85 2 8 4 15 5 15 1 0 3 9 4 20 3 16 16 80 51 235 8 37 49 213 67 290
11 47 21 96 22 110 1 14 5 30 9 36 3 6 9 24 11 40 3 16 8 40 11 54 3 14 8 36
11 50 3 14 9 41 14 60 5 19 11 49 14 65 3 17 10 45 15 63 5 18 10 35 10 37 1
3 1 6 2 8 0 1 2 9 4 17 1 8 8 42 15 75 7 33 14 67 15 75 2 8 4 16 5 18 3 2 2
1 15 57 5 22 9 42 10 45 1 3 5 25 10 50 5 25 9 47 10 50 1 3 5 23 10 45 13 56
12 55 15 58 1 1 4 16 6 32 3 17 12 57 21 90 8 33 17 69 19 80 2 11 6 31 9 45
3 14 7 35 10 48 2 13 7 33 11 44 3 11 8 30 9 41 2 12 13 63 25 112 11 50 22
99 25 110 2 11 4 20 5 20 1 0 3 8 5 17 2 9 8 40 15 70 6 29 14 64 16 77 3 13
12 51 20 85 9 34 17 70 19 81 3 17 13 64 31 138 11 46 15 65 20 97 3 19 8 38
11 43 2 4 6 17 9 30 5 28 7 35 38 181 14 65 28 121 30 125 2 3 7 22 10 41 3
19 17 85 31 145 27 119 64 286 70 317 2 11 6 27 9 36 3 9 7 28 10 42 2 14 9
45 16 69 6 25 13 56 15 70 2 14 4 26 5 26 2 0 5 14 18 75 8 37 29 132 47 210
2 8 4 15 5 15 1 0 3 11 5 25 5 27 12 62 15 70 1 3 3 10 4 15 1 6 7 35 14 65 7
30 14 64 16 75 2 11 9 38 14 60 6 22 13 51 16 65 3 14 8 36 11 50 3 14 8 38
11 54 2 16 7 32 9 36 2 4 7 21 10 39 3 18 15 72 26 119 11 48 23 98 25 112 3
14 9 40 14 59 5 19 7 38 4 43 -3 4 -1 8 4 8 6 0 9 6 9 13 -1 6 6 46 16 87 9
41 19 85 22 98 2 12 6 26 9 30 2 4 7 26 10 48 4 23 11 55 16 72 5 18 6 32 3
32 -3 0 0 7 7 15 7 8 10 15 8 15 -3 0 8 55 24 123 16 67 30 133 33 147 2 14 9
45 15 70 16 68 19 82 26 118 l6 32 -718 0 c-394 0 -715 -2 -712 -6z"/>
<path d="M23639 28073 c-6 -53 -2 -1853 4 -1853 5 0 5 -5 1 -12 -10 -16 -11
-2548 -1 -2548 5 0 5 -5 1 -12 -8 -12 -13 -3222 -6 -3245 3 -10 146 -13 668
-13 l664 0 2 3262 3 3263 610 0 610 0 0 580 0 580 -1277 3 c-703 1 -1278 -1
-1279 -5z"/>
<path d="M26459 28068 c-1 -17 -1 -7649 0 -7665 1 -10 142 -13 669 -13 l668 0
2 28 c7 68 8 81 1 98 -3 11 -3 29 2 42 5 14 5 22 -2 22 -6 0 -6 6 0 18 5 10 6
24 1 31 -4 8 -5 25 -1 40 7 28 6 90 -3 98 -2 3 -1 16 4 29 6 16 6 24 -1 24 -6
0 -6 6 0 18 5 10 6 24 1 31 -4 8 -5 25 -1 40 4 14 5 37 1 51 -4 14 -3 37 1 53
4 15 4 27 -1 27 -5 0 -5 12 -1 28 7 29 6 90 -3 99 -2 3 -1 16 4 29 6 16 6 24
-1 24 -6 0 -6 6 0 18 5 10 6 24 1 31 -4 8 -5 25 -1 40 7 28 6 90 -3 98 -2 3
-1 16 4 29 6 16 6 24 -1 24 -6 0 -6 6 0 18 5 10 6 24 1 31 -4 8 -5 25 -1 40 4
14 5 37 1 51 -4 14 -3 37 1 53 4 15 4 27 -1 27 -5 0 -5 12 -1 28 7 29 6 90 -3
99 -2 3 -1 16 4 29 6 16 6 24 -1 24 -6 0 -6 6 0 18 5 10 6 24 1 31 -4 8 -5 25
-1 40 7 28 6 90 -3 98 -2 3 -1 16 4 29 6 16 6 24 -1 24 -6 0 -6 6 0 18 5 10 6
24 1 31 -4 8 -5 25 -1 40 4 14 5 37 1 51 -4 14 -3 37 1 53 4 15 4 27 -1 27 -5
0 -5 12 -1 28 7 29 6 90 -3 99 -2 3 -1 16 4 29 6 16 6 24 -1 24 -6 0 -6 6 0
18 5 10 6 24 1 31 -4 8 -5 25 -1 40 7 28 6 90 -3 98 -2 3 -1 16 4 29 6 16 6
24 -1 24 -6 0 -6 6 0 18 5 10 6 24 1 31 -4 7 -5 25 -1 39 4 14 4 47 1 73 -4
27 -2 53 3 58 5 5 4 11 -2 15 -7 5 -8 13 -2 25 5 9 6 23 1 30 -4 8 -5 25 -1
40 7 28 6 90 -2 98 -3 2 -2 17 3 32 4 16 4 34 0 41 -5 7 -4 24 1 37 5 15 5 23
-2 23 -6 0 -6 6 0 18 5 10 6 24 1 31 -4 8 -5 25 -1 40 7 28 6 90 -2 98 -3 2
-2 17 3 32 4 16 4 34 0 41 -4 6 -4 26 0 44 4 18 3 42 -1 54 -5 12 -4 24 1 27
5 3 6 15 1 28 -5 12 -5 30 -2 41 4 10 4 40 1 66 -3 25 -3 59 1 73 4 15 3 27
-1 27 -5 0 -5 12 -1 28 7 29 6 90 -3 99 -2 3 -1 16 4 29 6 16 6 24 -1 24 -6 0
-6 6 0 18 5 10 6 24 1 31 -4 8 -5 25 -1 40 7 28 6 90 -3 98 -2 3 -1 16 4 29 6
16 6 24 -1 24 -6 0 -6 6 0 18 6 10 6 24 1 32 -5 8 -6 18 -4 22 3 5 5 32 5 61
-2 84 -1 111 4 115 2 2 0 15 -5 28 -6 14 -6 26 0 29 5 3 6 15 1 28 -5 12 -5
30 -2 39 3 10 4 50 1 88 -3 39 -1 75 3 79 5 5 4 12 -2 15 -7 5 -8 13 -2 25 5
9 6 23 1 30 -4 8 -5 25 -1 40 7 28 6 90 -2 98 -3 2 -2 17 3 32 4 16 4 34 0 41
-5 7 -4 24 1 37 5 15 5 23 -2 23 -6 0 -6 6 0 18 5 10 6 24 1 31 -4 8 -5 25 -1
40 3 14 5 40 4 56 -6 73 -5 143 1 153 3 6 2 13 -4 17 -6 4 -7 12 -1 24 5 9 6
23 1 30 -4 8 -5 25 -1 40 7 28 6 90 -2 98 -3 2 -2 17 3 32 4 16 4 34 0 41 -5
7 -4 24 1 37 5 15 5 23 -2 23 -6 0 -6 6 0 18 5 10 6 24 1 31 -4 8 -5 25 -1 40
7 28 6 90 -2 98 -3 2 -2 17 3 32 4 16 4 34 0 41 -4 6 -4 26 0 44 4 18 3 42 -1
54 -5 12 -4 24 1 27 5 3 6 15 1 28 -5 12 -5 30 -2 41 4 10 4 40 1 66 -3 25 -3
59 1 73 4 15 3 27 -1 27 -5 0 -5 12 -1 28 7 29 6 90 -3 99 -2 3 -1 16 4 29 6
16 6 24 -1 24 -6 0 -6 6 0 18 5 10 6 24 1 31 -4 8 -5 25 -1 40 7 28 6 90 -3
98 -2 3 -1 16 4 29 6 16 6 24 -1 24 -6 0 -6 6 0 18 6 10 6 24 1 32 -5 8 -6 18
-4 22 3 5 5 32 5 61 -2 84 -1 111 4 115 2 2 0 15 -5 28 -6 14 -6 26 0 29 5 3
6 15 1 28 -5 12 -5 30 -2 39 3 10 4 50 1 88 -3 39 -1 75 3 79 5 5 4 12 -2 15
-7 5 -8 13 -2 25 5 9 6 23 1 30 -4 8 -5 25 -1 40 7 28 6 90 -2 98 -3 2 -2 17
3 32 4 16 4 34 0 41 -5 7 -4 24 1 37 5 15 5 23 -2 23 -6 0 -6 6 0 18 5 10 6
24 1 31 -4 8 -5 25 -1 40 3 14 5 40 4 56 -1 17 -3 58 -4 93 l-2 62 -668 0
c-528 0 -669 -3 -670 -12z"/>
<path d="M28537 28073 c-3 -7 -2 -7656 2 -7675 0 -5 300 -8 665 -8 l664 0 0
3845 0 3845 -663 0 c-365 0 -666 -3 -668 -7z"/>
<path d="M31441 28058 c-10 -25 -22 -62 -22 -65 0 -1 -6 -15 -14 -30 -8 -14
-12 -30 -9 -35 3 -4 0 -8 -5 -8 -6 0 -11 -7 -11 -15 0 -8 -6 -29 -14 -47 -12
-28 -23 -56 -31 -78 -1 -3 -5 -12 -8 -20 -4 -8 -36 -94 -72 -190 -36 -96 -69
-184 -74 -195 -19 -44 -33 -80 -67 -173 -19 -53 -43 -113 -52 -132 -9 -19 -17
-41 -18 -48 -1 -8 -6 -21 -10 -30 -4 -9 -8 -21 -10 -27 -1 -5 -8 -23 -15 -40
-7 -16 -13 -32 -14 -35 -1 -3 -5 -12 -8 -20 -4 -8 -29 -76 -57 -150 -28 -74
-54 -144 -59 -155 -11 -24 -35 -88 -37 -95 0 -3 -5 -16 -11 -30 -6 -14 -27
-70 -47 -124 -20 -55 -42 -108 -47 -118 -6 -11 -12 -27 -14 -36 -2 -9 -29 -82
-60 -162 -31 -80 -62 -161 -68 -180 -6 -19 -16 -38 -22 -42 -5 -4 -7 -8 -3 -8
6 0 -4 -32 -31 -95 -5 -11 -47 -121 -94 -245 -47 -124 -91 -238 -98 -255 -7
-16 -13 -34 -15 -40 -5 -21 -144 -381 -153 -396 -5 -9 -13 -33 -16 -53 -4 -20
-10 -36 -14 -36 -3 0 -5 -187 -4 -415 l2 -414 35 -77 c20 -41 36 -78 36 -80 0
-2 18 -43 40 -90 22 -47 40 -87 40 -89 0 -2 17 -38 37 -82 20 -43 36 -79 35
-81 -1 -1 11 -28 27 -60 16 -31 41 -86 56 -122 15 -36 42 -96 60 -135 18 -38
61 -133 95 -210 34 -77 73 -165 87 -195 14 -30 51 -113 83 -185 32 -71 74
-165 94 -208 20 -43 36 -80 36 -82 0 -2 16 -38 36 -82 20 -43 45 -98 56 -123
11 -25 26 -57 34 -72 8 -16 12 -28 8 -28 -4 0 0 -8 9 -17 8 -10 16 -21 16 -26
0 -4 14 -37 31 -73 16 -36 30 -67 30 -69 0 -2 18 -43 41 -92 65 -141 79 -172
79 -177 0 -3 20 -47 43 -98 24 -51 59 -127 77 -168 43 -97 82 -183 111 -245
12 -27 23 -52 24 -55 0 -3 6 -14 12 -25 6 -11 11 -23 12 -28 0 -4 14 -35 30
-70 45 -95 104 -229 106 -237 0 -3 6 -15 13 -27 l13 -23 674 0 c638 0 674 1
668 18 -3 9 -14 35 -23 57 -10 22 -37 85 -60 140 -23 55 -50 118 -60 140 -21
49 -33 78 -34 85 -1 3 -4 10 -8 15 -3 6 -36 82 -73 170 -37 88 -74 176 -82
195 -8 19 -21 49 -28 65 -56 133 -69 165 -85 200 -52 117 -80 187 -80 198 0 7
-5 18 -12 25 -6 6 -13 17 -14 24 -1 7 -16 43 -33 80 -17 36 -31 69 -31 72 0 3
-11 29 -24 58 -21 47 -54 125 -91 213 -48 116 -75 177 -124 288 -16 37 -28 67
-26 67 3 0 -4 17 -14 38 -17 32 -115 261 -126 292 -3 10 -37 86 -56 127 -10
24 -19 45 -19 48 0 4 -9 27 -21 53 -40 90 -48 107 -74 172 -15 36 -40 93 -56
128 -16 35 -29 66 -29 68 0 3 -11 30 -25 60 -14 30 -25 57 -25 59 0 3 -10 27
-21 53 -29 65 -36 81 -129 302 -91 217 -99 236 -128 300 -11 25 -32 74 -47
110 -43 103 -56 134 -65 151 -5 10 -3 27 5 43 8 14 12 26 10 26 -3 0 7 26 21
58 14 31 27 62 28 67 4 14 14 39 47 117 16 36 29 69 29 73 0 4 6 21 14 38 8
18 29 68 46 112 18 44 38 94 45 110 6 17 43 107 80 200 37 94 74 184 81 202 8
17 14 36 14 42 0 6 4 11 8 11 4 0 8 8 9 18 1 9 12 40 24 67 13 28 24 55 25 60
1 6 21 55 44 110 23 55 43 105 44 110 1 6 10 28 20 50 18 41 99 246 101 255 1
3 6 16 12 30 6 14 36 88 67 165 31 77 61 149 65 160 5 11 17 40 27 65 9 25 25
63 34 85 10 22 26 63 36 90 10 28 22 53 27 56 5 3 8 8 6 10 -2 5 9 47 21 74 5
11 21 49 35 85 15 36 32 76 38 90 6 14 12 30 13 35 3 10 216 541 233 580 10
22 69 168 81 200 4 11 12 31 17 45 6 14 10 27 10 30 0 3 5 15 12 28 l12 22
-646 0 -645 0 -9 -22z"/>
<path d="M35115 28025 c13 -31 25 -59 26 -63 4 -17 12 -39 25 -69 8 -18 26
-63 40 -100 14 -38 31 -82 39 -100 8 -17 15 -34 15 -38 0 -4 6 -21 14 -38 7
-18 34 -84 59 -147 26 -63 52 -128 58 -145 7 -16 13 -32 14 -35 1 -3 5 -14 10
-25 4 -11 21 -54 37 -95 16 -41 36 -88 43 -105 7 -16 36 -88 63 -160 28 -71
56 -143 63 -160 7 -16 13 -32 14 -35 2 -6 20 -51 41 -105 9 -22 20 -49 24 -60
4 -11 15 -36 24 -57 9 -20 16 -38 16 -41 0 -2 7 -21 15 -41 8 -20 16 -39 16
-43 1 -5 10 -25 20 -45 11 -21 17 -38 14 -38 -4 0 1 -12 9 -27 8 -16 39 -91
70 -168 30 -77 91 -232 136 -345 45 -113 83 -209 84 -215 1 -5 10 -28 20 -50
10 -22 38 -92 62 -155 25 -63 52 -129 60 -147 8 -17 14 -36 14 -42 0 -6 4 -19
10 -29 5 -9 16 -35 26 -57 9 -22 20 -49 25 -60 4 -11 24 -61 43 -112 20 -50
42 -106 50 -125 8 -18 38 -91 66 -163 27 -71 55 -138 60 -147 6 -10 10 -25 10
-33 0 -8 4 -15 10 -15 5 0 9 -3 8 -7 -2 -8 31 -103 54 -153 6 -14 15 -35 19
-47 5 -13 13 -33 18 -45 5 -13 21 -50 34 -83 14 -33 42 -103 62 -155 20 -52
43 -108 50 -125 7 -16 82 -201 165 -410 84 -209 158 -393 166 -409 8 -16 14
-32 14 -36 0 -4 8 -25 17 -46 9 -22 17 -43 19 -49 1 -5 12 -32 24 -60 12 -27
26 -60 31 -72 5 -13 13 -33 18 -45 5 -13 15 -39 22 -58 7 -19 22 -57 34 -85
12 -27 34 -81 50 -120 15 -38 31 -79 36 -90 5 -11 43 -105 84 -210 42 -104 80
-194 85 -199 13 -13 330 -14 346 -1 7 6 47 94 88 196 42 103 81 200 87 215 7
16 13 32 14 37 2 4 4 9 5 12 1 3 3 8 4 13 2 4 8 21 16 37 17 40 34 80 58 140
11 28 40 100 65 160 24 61 61 153 82 205 20 52 46 114 56 137 10 24 19 47 19
53 0 6 4 18 10 28 17 31 48 107 55 135 4 15 10 27 14 27 4 0 8 6 8 13 0 6 23
69 52 139 28 69 51 131 51 137 0 6 4 11 8 11 4 0 14 21 21 47 8 25 20 58 27
72 7 14 45 107 85 206 l74 180 1 1633 c0 898 -2 1635 -6 1637 -3 2 -7 -6 -7
-17 -1 -11 -9 -28 -17 -37 -9 -10 -16 -22 -16 -28 0 -5 -44 -110 -98 -234 -54
-123 -127 -289 -162 -369 -34 -80 -76 -173 -91 -208 -16 -34 -29 -69 -29 -77
0 -8 -4 -15 -9 -15 -5 0 -12 -12 -15 -26 -4 -15 -25 -65 -47 -111 -21 -47 -39
-91 -39 -99 0 -8 -4 -14 -10 -14 -5 0 -10 -6 -10 -12 0 -10 -131 -315 -241
-563 -12 -27 -23 -52 -24 -55 0 -3 -10 -25 -21 -50 -11 -25 -67 -152 -124
-282 -57 -130 -107 -235 -112 -232 -5 3 -7 8 -5 11 3 2 -8 31 -24 63 -16 32
-29 61 -29 63 0 3 -8 22 -17 43 -9 22 -17 41 -18 44 -1 3 -13 31 -28 62 -15
31 -27 59 -27 62 0 3 -11 29 -24 58 -39 87 -61 137 -116 263 -28 66 -58 135
-66 153 -8 17 -20 47 -28 65 -29 69 -49 114 -77 175 -16 35 -29 65 -29 68 0 6
-37 88 -61 137 -10 22 -19 45 -19 53 0 8 -5 14 -10 14 -6 0 -9 3 -9 8 1 4 0
10 -1 15 -1 4 -3 10 -4 15 -1 4 -9 23 -18 42 -9 19 -28 61 -42 93 -14 31 -22
57 -18 57 4 0 2 4 -3 8 -6 4 -32 59 -59 122 -27 63 -62 143 -78 177 -15 34
-28 63 -28 66 0 2 -14 35 -32 73 -17 38 -33 72 -34 77 -1 4 -3 9 -4 12 -1 3
-3 8 -5 13 -1 4 -12 30 -25 57 -27 60 -47 105 -90 205 -18 41 -40 93 -50 115
-10 22 -25 58 -34 80 -9 22 -24 56 -32 75 -9 19 -62 141 -118 270 l-102 235
-642 3 -642 2 25 -55z"/>
<path d="M39079 28073 c-3 -26 -3 -7651 0 -7665 3 -17 43 -18 672 -18 l670 0
-1 250 c-1 137 1 254 5 259 3 5 1 12 -4 15 -4 3 -5 24 -1 46 4 22 5 40 1 40
-3 0 -4 108 -1 240 3 132 3 240 0 240 -3 0 -3 36 0 80 3 44 3 80 0 80 -6 0 -2
520 4 537 3 7 1 15 -3 17 -5 3 -5 24 -1 46 4 22 5 40 1 40 -3 0 -4 108 -1 240
3 132 3 240 0 240 -3 0 -3 36 0 80 3 44 3 80 0 80 -6 0 -2 520 4 537 3 7 1 15
-3 17 -5 3 -5 24 -1 46 4 22 5 40 1 40 -3 0 -4 108 -1 240 3 132 3 240 0 240
-3 0 -3 36 0 80 3 44 3 80 0 80 -6 0 -2 520 4 537 3 7 1 15 -3 17 -5 3 -5 24
-1 46 4 22 5 40 1 40 -3 0 -4 108 -1 240 3 132 3 240 0 240 -3 0 -3 36 0 80 3
44 3 80 0 80 -6 0 -2 520 4 537 3 7 1 15 -3 17 -5 3 -5 24 -1 46 4 22 5 40 1
40 -3 0 -4 108 -1 240 3 132 3 240 0 240 -3 0 -3 36 0 80 3 44 3 80 0 80 -6 0
-2 520 4 537 3 7 1 15 -3 17 -5 3 -5 24 -1 46 4 22 5 40 1 40 -3 0 -4 108 -1
240 3 132 3 240 0 240 -3 0 -4 45 -2 100 l3 100 -670 0 c-369 0 -671 -3 -672
-7z"/>
<path d="M41159 28078 c0 -2 -2 -1732 -2 -3846 l-2 -3842 667 0 668 0 2 3262
3 3263 611 0 611 0 0 582 -1 583 -1278 0 c-703 0 -1278 -1 -1279 -2z"/>
<path d="M43979 28073 c0 -5 -2 -1735 -2 -3846 l-2 -3837 673 0 673 0 -2 80
c-1 44 1 83 4 86 3 3 2 16 -2 28 -5 11 -5 30 -1 40 3 11 4 36 0 55 -3 20 -5
45 -3 56 4 34 6 173 4 245 0 8 0 44 0 80 0 36 0 72 0 80 0 8 0 44 0 80 0 36 0
72 0 80 0 8 0 44 0 80 0 36 0 70 0 75 0 6 -1 56 -2 113 -1 57 1 105 4 108 3 4
2 16 -2 28 -5 11 -5 30 -1 40 3 11 4 36 0 55 -3 20 -5 45 -3 56 3 33 7 204 4
250 -2 34 -2 122 -1 130 2 6 1 14 0 20 -2 12 -2 236 1 250 1 6 1 14 0 19 -1 5
-2 55 -1 110 1 56 1 106 1 111 -3 93 -2 207 2 211 3 4 2 16 -2 28 -5 11 -5 30
-1 40 3 11 4 36 0 55 -3 20 -5 45 -3 56 3 33 7 204 4 250 -2 34 -2 122 -1 130
2 6 1 14 0 20 -2 12 -2 236 1 250 1 6 1 14 0 19 -1 5 -2 55 -1 110 1 56 1 107
1 114 0 11 -1 112 0 150 0 39 0 148 0 162 0 8 0 44 0 80 0 36 0 72 0 80 0 8 0
44 0 80 0 36 0 81 -1 100 -5 139 -4 240 3 240 5 0 5 5 2 10 -4 6 -6 54 -5 108
1 53 1 102 1 107 -1 36 -2 232 0 240 1 6 1 14 0 19 -1 5 -2 55 -1 110 1 56 1
106 1 111 -1 39 -2 232 0 240 1 6 1 14 0 19 -1 5 -2 53 -1 105 1 53 1 103 1
111 0 8 0 44 0 80 0 36 0 72 0 80 0 8 0 44 0 80 0 36 0 72 0 80 0 8 0 44 0 80
0 36 0 70 0 75 0 6 -1 56 -2 113 -1 57 1 105 4 108 3 4 2 16 -2 28 -5 11 -5
30 -1 40 3 11 4 36 0 55 -3 20 -5 45 -3 56 3 33 7 204 4 250 -2 34 -2 122 -1
130 2 6 1 14 0 20 -2 12 -2 236 1 250 1 6 1 14 0 19 -1 5 -2 55 -1 110 1 56 1
106 1 111 0 6 -1 56 -2 113 l-1 102 -669 0 c-368 0 -669 -3 -670 -7z"/>
<path d="M46004 28063 c2 -10 7 -63 11 -118 3 -55 8 -116 10 -135 2 -19 6 -73
9 -120 3 -47 8 -105 11 -129 3 -24 8 -78 10 -120 3 -42 7 -105 10 -141 8 -93
14 -164 19 -250 3 -41 8 -97 11 -125 6 -63 14 -161 20 -245 3 -36 7 -87 9
-115 8 -100 18 -231 20 -267 2 -21 5 -40 8 -43 6 -7 799 -8 805 -1 3 2 6 24 8
48 2 23 6 79 10 123 3 44 8 107 11 140 2 33 6 85 9 115 9 104 15 175 20 250 6
80 10 131 20 250 11 135 13 164 19 240 3 41 8 109 12 150 4 41 8 95 10 120 2
25 5 72 8 105 2 33 7 98 10 145 4 47 8 97 10 113 l3 27 -553 0 c-521 0 -553
-1 -550 -17z"/>
<path d="M47379 28063 c-1 -10 0 -22 1 -28 1 -5 4 -32 6 -60 2 -27 6 -75 9
-105 3 -30 7 -89 11 -130 3 -41 7 -91 9 -110 3 -33 12 -139 20 -240 2 -25 6
-70 9 -100 3 -30 8 -89 11 -130 3 -41 8 -93 10 -115 2 -22 6 -71 9 -110 3 -38
8 -90 11 -115 3 -25 7 -76 9 -115 3 -38 7 -97 10 -130 14 -144 16 -174 22
-245 3 -41 7 -77 9 -78 6 -7 786 -4 793 2 9 9 15 66 27 253 3 39 7 93 10 120
2 26 7 84 10 128 2 44 7 103 10 130 3 28 8 82 11 120 11 166 13 193 18 250 3
33 8 96 11 140 3 44 8 105 11 135 3 30 7 79 9 108 2 29 6 80 9 115 3 34 8 96
11 137 3 41 8 101 11 133 l6 57 -551 0 c-518 0 -551 -1 -552 -17z"/>
<path d="M35040 27465 c-3 -14 -2 -138 0 -150 1 -5 1 -14 0 -20 -5 -26 -1
-135 5 -146 5 -7 4 -10 -1 -6 -5 3 -9 -8 -9 -24 0 -16 3 -29 6 -29 3 0 3 -20
-1 -45 -4 -24 -3 -42 2 -39 4 3 4 -5 -1 -18 -5 -15 -5 -31 0 -41 6 -9 6 -17 2
-17 -10 0 -8 -104 3 -121 4 -7 3 -10 -2 -6 -10 6 -11 -49 -1 -59 3 -3 2 -16
-3 -28 -4 -13 -4 -29 1 -39 6 -9 6 -17 2 -17 -4 0 -8 -11 -8 -25 0 -14 3 -25
6 -25 4 0 3 -18 -1 -40 -4 -22 -4 -40 1 -40 5 0 5 -10 0 -23 -5 -14 -5 -30 0
-40 6 -9 6 -17 2 -17 -9 0 -9 -172 0 -187 3 -5 2 -15 -3 -23 -4 -7 -4 -24 1
-37 5 -13 6 -22 1 -20 -4 3 -7 -8 -7 -24 0 -16 3 -29 6 -29 3 0 3 -20 -1 -44
-3 -24 -3 -53 2 -65 4 -12 4 -20 0 -17 -4 2 -7 -9 -7 -25 0 -16 3 -29 7 -29 4
0 3 -13 -2 -30 -5 -17 -5 -30 0 -30 5 0 6 -8 3 -17 -8 -21 -9 -66 0 -79 3 -5
2 -16 -3 -24 -4 -7 -4 -24 1 -37 5 -13 5 -22 1 -19 -9 5 -6 -70 4 -86 4 -6 3
-9 -2 -5 -5 3 -9 -8 -9 -24 0 -16 4 -29 8 -29 5 0 5 -5 2 -11 -10 -14 -12 -80
-4 -85 4 -2 3 -20 -1 -39 -5 -20 -4 -33 1 -29 5 3 5 -5 0 -18 -5 -15 -5 -31 0
-41 6 -9 6 -17 2 -17 -10 0 -8 -104 3 -121 4 -7 3 -10 -2 -6 -10 6 -11 -49 -1
-59 3 -3 2 -16 -3 -28 -4 -13 -4 -29 1 -39 6 -9 6 -17 2 -17 -4 0 -8 -11 -8
-25 0 -14 3 -25 6 -25 4 0 3 -18 -1 -40 -4 -22 -4 -40 1 -40 5 0 5 -10 0 -23
-5 -14 -5 -30 0 -40 6 -9 6 -17 1 -17 -8 0 -7 -69 2 -77 3 -3 1 -15 -4 -27 -4
-13 -4 -29 1 -39 6 -9 6 -17 2 -17 -10 0 -8 -104 3 -121 4 -7 3 -10 -2 -6 -10
6 -11 -49 -1 -59 3 -3 2 -16 -3 -28 -4 -13 -4 -29 1 -39 6 -9 6 -17 2 -17 -4
0 -8 -11 -8 -25 0 -14 3 -25 6 -25 4 0 3 -18 -1 -40 -4 -22 -4 -40 1 -40 5 0
5 -10 0 -23 -5 -14 -5 -30 0 -40 6 -9 6 -17 2 -17 -10 0 -8 -104 3 -121 4 -7
3 -10 -2 -6 -5 3 -9 -8 -9 -24 0 -16 3 -29 7 -29 4 0 3 -13 -2 -30 -5 -17 -5
-30 0 -30 5 0 6 -8 3 -17 -8 -21 -9 -66 0 -79 3 -5 2 -16 -3 -24 -4 -7 -4 -24
1 -37 5 -13 5 -22 1 -19 -9 5 -6 -70 4 -86 4 -6 3 -9 -2 -5 -5 3 -9 -8 -9 -24
0 -16 4 -29 8 -29 5 0 5 -5 2 -11 -10 -15 -12 -80 -3 -86 5 -2 6 -9 2 -14 -8
-13 -9 -142 -2 -155 4 -5 3 -16 -2 -24 -4 -7 -4 -24 1 -37 5 -13 6 -22 1 -20
-4 3 -7 -8 -7 -24 0 -16 3 -29 6 -29 3 0 3 -20 -1 -45 -4 -24 -3 -42 2 -39 4
3 4 -5 -1 -18 -5 -15 -5 -31 0 -41 6 -9 6 -17 2 -17 -10 0 -8 -104 3 -121 4
-7 3 -10 -2 -6 -10 6 -11 -49 -1 -59 3 -3 2 -16 -3 -28 -4 -13 -4 -29 1 -39 6
-9 6 -17 2 -17 -4 0 -8 -11 -8 -25 0 -14 3 -25 6 -25 4 0 3 -18 -1 -40 -4 -22
-4 -40 1 -40 5 0 5 -10 0 -23 -5 -14 -5 -30 0 -40 6 -9 6 -17 2 -17 -9 0 -9
-172 0 -187 3 -5 2 -15 -3 -23 -4 -7 -4 -24 1 -37 5 -13 6 -22 1 -20 -4 3 -7
-8 -7 -24 0 -16 3 -29 6 -29 3 0 3 -20 -1 -44 -3 -24 -3 -53 2 -65 4 -12 4
-20 0 -17 -4 2 -7 -9 -7 -25 0 -16 3 -29 7 -29 4 0 3 -13 -2 -30 -5 -17 -5
-30 0 -30 5 0 6 -8 3 -17 -8 -21 -9 -66 0 -79 3 -5 2 -16 -3 -24 -4 -7 -4 -24
1 -37 5 -13 5 -22 1 -19 -9 5 -6 -70 4 -86 4 -6 3 -9 -2 -5 -5 3 -9 -8 -9 -24
0 -16 4 -29 8 -29 5 0 5 -5 2 -11 -10 -14 -12 -80 -4 -85 4 -2 3 -20 -1 -39
-5 -20 -4 -33 1 -29 5 3 5 -5 0 -18 -5 -15 -5 -31 0 -41 6 -9 6 -17 2 -17 -10
0 -8 -104 3 -121 4 -7 3 -10 -2 -6 -10 6 -11 -49 -1 -59 3 -3 2 -16 -3 -28 -4
-13 -4 -29 1 -39 6 -9 6 -17 2 -17 -4 0 -8 -11 -8 -25 0 -14 3 -25 6 -25 4 0
3 -18 -1 -40 -4 -22 -4 -40 1 -40 5 0 5 -10 0 -23 -5 -14 -5 -30 0 -40 6 -9 6
-17 1 -17 -8 0 -7 -69 2 -77 3 -3 1 -15 -4 -27 -4 -13 -4 -29 1 -39 6 -9 6
-17 2 -17 -10 0 -8 -104 3 -121 4 -7 3 -10 -2 -6 -10 6 -11 -49 -1 -59 3 -3 2
-16 -3 -28 -4 -13 -4 -29 1 -39 6 -9 6 -17 2 -17 -4 0 -8 -11 -8 -25 0 -14 4
-25 8 -25 5 0 6 -4 3 -9 -3 -5 -7 -35 -8 -67 l-3 -59 668 -3 667 -2 0 32 c1
18 1 861 1 1873 0 1968 3 1851 -45 1958 -8 17 -43 106 -79 197 -35 91 -68 174
-72 185 -5 11 -9 22 -10 25 0 3 -11 27 -23 54 -12 27 -22 50 -22 52 0 4 -225
575 -240 609 -5 11 -19 45 -30 75 -12 30 -28 67 -36 83 -9 15 -13 27 -9 27 3
0 -4 19 -16 43 -12 23 -21 42 -19 42 1 0 -5 18 -15 40 -9 22 -18 47 -20 56 -2
9 -8 25 -14 35 -5 11 -39 94 -75 185 -36 91 -71 179 -77 195 -7 16 -13 31 -14
34 -1 3 -7 19 -14 35 -103 258 -131 331 -129 335 2 3 -5 16 -15 30 -9 13 -17
30 -17 36 0 6 -9 32 -20 58 -12 25 -21 48 -20 51 0 3 -7 19 -15 35 -9 17 -12
30 -9 30 4 0 -1 9 -12 21 -10 12 -18 23 -16 25 4 5 -23 80 -55 152 -12 29 -23
56 -23 60 0 5 -9 27 -20 50 -11 22 -20 47 -20 55 0 7 -4 17 -8 23 -5 5 -17 32
-27 59 -10 28 -27 70 -38 95 -10 24 -20 49 -21 55 -5 21 -34 80 -36 70z"/>
<path d="M33017 24262 l-37 -3 2 -442 3 -441 800 -1 c440 0 807 1 815 3 13 3
15 59 14 437 0 239 -3 437 -6 440 -6 6 -1523 12 -1591 7z"/>
</g>
</svg>
