<?xml version="1.0" encoding="UTF-8" standalone="no"?>
<svg
   xmlns:dc="http://purl.org/dc/elements/1.1/"
   xmlns:cc="http://creativecommons.org/ns#"
   xmlns:rdf="http://www.w3.org/1999/02/22-rdf-syntax-ns#"
   xmlns:svg="http://www.w3.org/2000/svg"
   xmlns="http://www.w3.org/2000/svg"
   width="302.60013"
   height="48"
   viewBox="0 0 302.60005 48.000001"
   id="svg2"
   version="1.1">
  <metadata
     id="metadata29">
    <rdf:RDF>
      <cc:Work
         rdf:about="">
        <dc:format>image/svg+xml</dc:format>
        <dc:type
           rdf:resource="http://purl.org/dc/dcmitype/StillImage" />
        <dc:title></dc:title>
      </cc:Work>
    </rdf:RDF>
  </metadata>
  <defs
     id="defs27" />
  <path
     style="fill:#ffffff;fill-opacity:1"
     id="path3"
     d="m 17.602119,40.660352 -7.599459,0 0,7.339648 9.028417,0 c 3.052774,0 6.949933,-3.572395 6.949933,-6.690122 l 0,-34.619756 C 25.98101,3.572395 22.083851,0 19.031077,0 l -9.028417,0 0,7.274696 7.599459,0 0,33.385656 z M 6.9498865,0 C 3.8321599,0 -4.5776367e-5,3.507442 -4.5776367e-5,6.690122 l 0,34.619756 C -4.5776367e-5,44.492558 3.8321599,48 6.9498865,48 l 1.3640053,0 0,-48 -1.3640053,0 z" />
  <path
     style="fill:#ffffff;fill-opacity:1"
     id="path5"
     d="m 48.175528,40.660352 -7.599458,0 0,7.339648 9.028416,0 c 3.052774,0 6.949933,-3.572395 6.949933,-6.690122 l 0,-34.619756 C 56.554419,3.572395 52.65726,0 49.604486,0 l -9.028416,0 0,7.274696 7.599458,0 0,33.385656 z M 37.523296,0 c -3.117727,0 -6.949933,3.507442 -6.949933,6.690122 l 0,34.619756 c 0,3.18268 3.832206,6.690122 6.949933,6.690122 l 1.364005,0 0,-48 -1.364005,0 z" />
  <path
     style="fill:#ffffff;fill-opacity:1"
     id="path7"
     d="m 78.748942,40.660352 -7.599456,0 0,7.339648 9.028414,0 c 3.052774,0 6.949932,-3.572395 6.949932,-6.690122 l 0,-34.619756 C 87.127832,3.572395 83.230674,0 80.1779,0 l -9.028414,0 0,7.274696 7.599456,0 0,33.385656 z M 68.096712,0 C 64.978985,0 61.14678,3.507442 61.14678,6.690122 l 0,34.619756 C 61.14678,44.492558 64.978985,48 68.096712,48 l 1.364005,0 0,-48 -1.364005,0 z" />
  <path
     style="fill:#ffffff;fill-opacity:1"
     id="path9"
     d="m 116.62241,0 -6.88498,0 0.97429,11.431664 5.00136,0 L 116.62241,0 Z m -8.57374,0 -6.88498,0 0.90933,11.431664 5.06631,0 L 108.04867,0 Z" />
  <path
     style="fill:#ffffff;fill-opacity:1"
     id="path11"
     d="m 122.39203,40.660352 0,7.339648 6.82003,0 c 3.24763,0 6.36536,-3.897158 7.07984,-6.820027 L 145.58013,0 l -8.89852,0 -7.92422,40.660352 -6.36536,0 z M 127.19853,0 118.30002,0 127.6532,37.932341 131.22559,19.810555 127.19853,0 Z" />
  <path
     style="fill:#ffffff;fill-opacity:1"
     id="path13"
     d="m 173.51992,48 0,-48 -8.3789,0 0,48 8.3789,0 z m -25.98106,-48 0,48 8.31394,0 0,-40.725304 7.66441,0 0,-7.274696 -15.97835,0 z" />
  <path
     style="fill:#ffffff;fill-opacity:1"
     id="path15"
     d="m 178.11227,0 0,48 8.31394,0 0,-48 -8.31394,0 z m 19.6157,48 8.44384,0 L 195.32472,22.473613 204.35313,0 l -8.05412,0 -8.18403,21.434371 0,5.131258 L 197.72797,48 Z" />
  <path
     style="fill:#ffffff;fill-opacity:1"
     id="path17"
     d="m 205.84907,23.837618 0,5.520975 10.19757,0 0,-5.520975 -10.19757,0 z" />
  <path
     style="fill:#ffffff;fill-opacity:1"
     id="path19"
     d="m 219.03243,0 7.98918,20.135318 7.46955,18.576455 2.20839,0 5.58593,-13.834912 0,-20.460082 -6.69013,15.328823 L 227.02161,0 219.03243,0 Z m -0.32476,48 8.31394,0 0,-23.38295 -8.31394,-20.91475 0,44.2977 z m 25.20162,-48 0,48 8.37889,0 0,-48 -8.37889,0 z" />
  <path
     style="fill:#ffffff;fill-opacity:1"
     id="path21"
     d="m 282.87377,48 0,-48 -8.37889,0 0,48 8.37889,0 z m -25.98106,-48 0,48 8.31394,0 0,-40.725304 7.66441,0 0,-7.274696 -15.97835,0 z" />
  <path
     style="fill:#ffffff;fill-opacity:1"
     id="path23"
     d="m 302.60009,0 -6.88498,0 0.97429,11.431664 5.00135,0 L 302.60009,0 Z m -8.57375,0 -6.88498,0 0.90934,11.431664 5.06631,0 L 294.02634,0 Z" />
</svg>
